<svg width="435" height="481" viewBox="0 0 435 481" fill="none" xmlns="http://www.w3.org/2000/svg">
<path fill-rule="evenodd" clip-rule="evenodd" d="M49.4339 468.667H315.042V469.9H49.4339V468.667Z" fill="#3FB1B5"/>
<path fill-rule="evenodd" clip-rule="evenodd" d="M296.443 481H4.08286V480.046H296.443V481Z" fill="#66B0F0"/>
<path d="M295.153 4.92148V52.7708C295.153 62.1417 287.508 69.7541 278.097 69.7541H224.816C234.227 69.7541 241.872 62.1648 241.872 52.7708V4.92148H295.153Z" fill="white"/>
<path fill-rule="evenodd" clip-rule="evenodd" d="M241.291 4.34311H295.733V52.7709C295.733 62.4613 287.829 70.3327 278.097 70.3327H224.816V69.1758C233.907 69.1758 241.291 61.845 241.291 52.7709V4.34311ZM231.126 69.1758H278.097C287.187 69.1758 294.572 61.8223 294.572 52.7709V5.50001H242.453V52.7709C242.453 60.2662 237.746 66.6505 231.126 69.1758Z" fill="#66B0F0"/>
<path d="M270.545 0.294067H266.246V10.4979H270.545V0.294067Z" fill="#FFCF2D"/>
<path d="M279.654 23.1085C279.05 23.1085 278.446 22.8771 277.958 22.4375L276.169 20.8641C275.611 20.3782 274.868 20.3782 274.31 20.8641L272.614 22.3681C271.615 23.2473 270.221 23.2473 269.198 22.3681L267.641 21.0029C267.084 20.517 266.34 20.517 265.782 21.0029L264.342 22.2755C263.343 23.1548 261.948 23.1548 260.926 22.2755L259.741 21.2343C259.183 20.7484 258.44 20.7484 257.882 21.2343L256.604 22.3681C255.605 23.2473 254.211 23.2473 253.188 22.3681L252.003 21.3269C251.446 20.841 250.702 20.841 250.144 21.3269C249.912 21.5351 249.54 21.512 249.331 21.2806C249.122 21.0492 249.145 20.679 249.378 20.4707C250.377 19.5915 251.771 19.5915 252.793 20.4707L253.978 21.512C254.536 21.9979 255.28 21.9979 255.837 21.512L257.115 20.3782C258.114 19.499 259.509 19.499 260.531 20.3782L261.716 21.4194C262.274 21.9053 263.017 21.9053 263.575 21.4194L265.016 20.1468C266.015 19.2676 267.409 19.2676 268.431 20.1468L269.988 21.512C270.546 21.9979 271.289 21.9979 271.847 21.512L273.543 20.008C274.542 19.1287 275.937 19.1287 276.959 20.008L278.748 21.5814C279.306 22.0673 280.049 22.0673 280.607 21.5814L282.466 19.9386C283.465 19.0593 284.859 19.0593 285.882 19.9386C286.114 20.1468 286.137 20.517 285.928 20.7484C285.719 20.9798 285.347 21.0029 285.115 20.7947C284.557 20.3088 283.814 20.3088 283.256 20.7947L281.397 22.4375C280.839 22.8771 280.259 23.1085 279.654 23.1085Z" fill="#66B0F0"/>
<path d="M279.654 32.6177C279.05 32.6177 278.446 32.3863 277.958 31.9467L276.169 30.3733C275.611 29.8874 274.868 29.8874 274.31 30.3733L272.614 31.8773C271.615 32.7565 270.221 32.7565 269.198 31.8773L267.641 30.5122C267.084 30.0263 266.34 30.0263 265.782 30.5122L264.342 31.7847C263.343 32.664 261.948 32.664 260.926 31.7847L259.741 30.7435C259.183 30.2576 258.44 30.2576 257.882 30.7435L256.604 31.8773C255.605 32.7565 254.211 32.7565 253.188 31.8773L252.003 30.8361C251.446 30.3502 250.702 30.3502 250.144 30.8361C249.912 31.0443 249.54 31.0212 249.331 30.7898C249.122 30.5584 249.145 30.1882 249.378 29.98C250.377 29.1007 251.771 29.1007 252.793 29.98L253.978 31.0212C254.536 31.5071 255.28 31.5071 255.837 31.0212L257.115 29.8874C258.115 29.0082 259.509 29.0082 260.531 29.8874L261.716 30.9286C262.274 31.4145 263.017 31.4145 263.575 30.9286L265.016 29.6561C266.015 28.7768 267.409 28.7768 268.431 29.6561L269.988 31.0212C270.546 31.5071 271.289 31.5071 271.847 31.0212L273.543 29.5172C274.543 28.638 275.937 28.638 276.959 29.5172L278.748 31.0906C279.306 31.5765 280.05 31.5765 280.607 31.0906L282.466 29.4478C283.465 28.5686 284.859 28.5686 285.882 29.4478C286.114 29.6561 286.137 30.0263 285.928 30.2576C285.719 30.489 285.347 30.5122 285.115 30.3039C284.557 29.818 283.814 29.818 283.256 30.3039L281.397 31.9467C280.84 32.4095 280.259 32.6177 279.654 32.6177Z" fill="#66B0F0"/>
<path d="M279.654 42.1272C279.05 42.1272 278.446 41.8959 277.958 41.4562L276.169 39.8829C275.611 39.397 274.868 39.397 274.31 39.8829L272.614 41.3868C271.615 42.2661 270.221 42.2661 269.198 41.3868L267.641 40.0217C267.084 39.5358 266.34 39.5358 265.782 40.0217L264.342 41.2943C263.343 42.1735 261.948 42.1735 260.926 41.2943L259.741 40.2531C259.183 39.7672 258.44 39.7672 257.882 40.2531L256.604 41.3868C255.605 42.2661 254.211 42.2661 253.188 41.3868L252.003 40.3456C251.446 39.8597 250.702 39.8597 250.144 40.3456C249.912 40.5539 249.54 40.5307 249.331 40.2993C249.122 40.068 249.145 39.6978 249.378 39.4895C250.377 38.6103 251.771 38.6103 252.793 39.4895L253.978 40.5307C254.536 41.0166 255.28 41.0166 255.837 40.5307L257.115 39.397C258.115 38.5177 259.509 38.5177 260.531 39.397L261.716 40.4382C262.274 40.9241 263.017 40.9241 263.575 40.4382L265.016 39.1656C266.015 38.2863 267.409 38.2863 268.431 39.1656L269.988 40.5307C270.546 41.0166 271.289 41.0166 271.847 40.5307L273.543 39.0268C274.543 38.1475 275.937 38.1475 276.959 39.0268L278.748 40.6001C279.306 41.086 280.05 41.086 280.607 40.6001L282.466 38.9573C283.465 38.0781 284.859 38.0781 285.882 38.9573C286.114 39.1656 286.137 39.5358 285.928 39.7672C285.719 39.9985 285.347 40.0217 285.115 39.8134C284.557 39.3275 283.814 39.3275 283.256 39.8134L281.397 41.4562C280.84 41.919 280.259 42.1272 279.654 42.1272Z" fill="#66B0F0"/>
<path d="M279.654 51.6597C279.05 51.6597 278.446 51.4283 277.958 50.9887L276.169 49.4153C275.611 48.9294 274.868 48.9294 274.31 49.4153L272.614 50.9193C271.615 51.7985 270.221 51.7985 269.198 50.9193L267.641 49.5541C267.084 49.0682 266.34 49.0682 265.782 49.5541L264.342 50.8267C263.343 51.706 261.948 51.706 260.926 50.8267L259.741 49.7855C259.183 49.2996 258.44 49.2996 257.882 49.7855L256.604 50.9193C255.605 51.7985 254.211 51.7985 253.188 50.9193L252.003 49.8781C251.446 49.3922 250.702 49.3922 250.144 49.8781C249.912 50.0863 249.54 50.0632 249.331 49.8318C249.122 49.6004 249.145 49.2302 249.378 49.022C250.377 48.1427 251.771 48.1427 252.793 49.022L253.978 50.0632C254.536 50.5491 255.28 50.5491 255.837 50.0632L257.115 48.9294C258.115 48.0502 259.509 48.0502 260.531 48.9294L261.716 49.9706C262.274 50.4565 263.017 50.4565 263.575 49.9706L265.016 48.698C266.015 47.8188 267.409 47.8188 268.431 48.698L269.988 50.0632C270.546 50.5491 271.289 50.5491 271.847 50.0632L273.543 48.5592C274.543 47.68 275.937 47.68 276.959 48.5592L278.748 50.1326C279.306 50.6185 280.05 50.6185 280.607 50.1326L282.466 48.4898C283.465 47.6105 284.859 47.6105 285.882 48.4898C286.114 48.698 286.137 49.0682 285.928 49.2996C285.719 49.531 285.347 49.5541 285.115 49.3459C284.557 48.86 283.814 48.86 283.256 49.3459L281.397 50.9887C280.84 51.4283 280.259 51.6597 279.654 51.6597Z" fill="#66B0F0"/>
<path d="M350.011 4.92032H312.741V42.0337H350.011V4.92032Z" fill="#FFCF2D"/>
<path d="M320.931 3.33703L318.233 0.00463867L308.392 7.94231L311.09 11.2747L320.931 3.33703Z" fill="#FE5244"/>
<path d="M351.945 11.2562L354.647 7.92679L344.797 5.15062e-06L342.095 3.3294L351.945 11.2562Z" fill="#FE5244"/>
<path d="M342.135 13.7139H319.526V15.1022H342.135V13.7139Z" fill="white"/>
<path d="M342.135 19.7062H319.526V21.0944H342.135V19.7062Z" fill="white"/>
<path d="M342.135 25.7216H319.526V27.1099H342.135V25.7216Z" fill="white"/>
<path d="M342.135 31.7153H319.526V33.1035H342.135V31.7153Z" fill="white"/>
<path d="M378.457 404.178C377.917 404.019 377.618 403.94 377.618 403.94L371.085 425.244L346.494 418.819C346.294 418.64 346.194 418.54 346.194 418.54C346.194 418.54 246.611 340.822 241.378 303.525C236.164 266.227 277.875 230.839 277.875 230.839C277.875 230.839 366.83 398.27 377.837 403.741C378.057 403.86 378.277 403.999 378.457 404.178Z" fill="#E57281"/>
<path d="M298.931 270.007C295.814 286.617 284.867 320.254 273.541 352.797C256.76 334.795 243.216 316.634 241.378 303.505C238.062 279.873 253.624 256.978 265.45 243.411C269.785 239.95 274.459 236.767 279.513 233.923C282.61 239.711 289.781 253.119 298.931 270.007Z" fill="#9A3B82"/>
<path d="M434.351 418.52L397.774 441.894L387.166 440.302L377.398 446.469L380.554 452.914L364.473 463.198C343.158 443.883 346.174 418.759 346.174 418.759L371.065 425.264L377.597 403.96C377.597 403.96 399.951 410.464 416.452 409.907C432.993 409.35 434.351 418.52 434.351 418.52Z" fill="white"/>
<path fill-rule="evenodd" clip-rule="evenodd" d="M377.197 403.222L377.765 403.387L377.597 403.96C377.765 403.387 377.765 403.387 377.765 403.387L377.781 403.392L377.828 403.405C377.87 403.418 377.933 403.436 378.016 403.459C378.183 403.506 378.429 403.575 378.749 403.663C379.39 403.839 380.324 404.09 381.497 404.39C383.843 404.989 387.143 405.782 390.957 406.558C398.595 408.112 408.253 409.588 416.431 409.312C424.816 409.029 429.46 411.212 432.011 413.568C433.281 414.741 434.012 415.938 434.426 416.851C434.633 417.308 434.761 417.693 434.838 417.969C434.876 418.107 434.902 418.218 434.918 418.297C434.926 418.336 434.932 418.368 434.936 418.391C434.938 418.403 434.94 418.412 434.941 418.419L434.943 418.428L434.943 418.432L434.943 418.433C434.943 418.434 434.944 418.434 434.351 418.521L434.944 418.434L435 418.815L397.907 442.518L387.298 440.926L378.171 446.688L381.326 453.13L364.41 463.948L364.069 463.64C353.3 453.881 348.675 442.65 346.745 433.864C345.78 429.471 345.488 425.687 345.437 422.998C345.411 421.654 345.446 420.582 345.488 419.844C345.509 419.475 345.531 419.189 345.549 418.994C345.557 418.896 345.565 418.822 345.57 418.77C345.573 418.745 345.575 418.725 345.577 418.712L345.578 418.696L345.579 418.691L345.579 418.69C345.579 418.689 345.579 418.689 346.174 418.76L345.579 418.689L345.661 418.009L370.66 424.542L377.197 403.222ZM346.71 419.517C346.701 419.634 346.693 419.765 346.685 419.911C346.645 420.622 346.61 421.664 346.635 422.976C346.685 425.601 346.971 429.306 347.916 433.609C349.786 442.12 354.234 452.965 364.538 462.448L379.782 452.699L376.624 446.251L387.034 439.68L397.64 441.271L433.671 418.247C433.607 418.025 433.502 417.714 433.334 417.343C432.976 416.554 432.334 415.493 431.196 414.443C428.933 412.354 424.627 410.23 416.472 410.504C408.15 410.785 398.381 409.287 390.717 407.728C386.88 406.947 383.56 406.149 381.199 405.546C380.018 405.244 379.077 404.992 378.431 404.814C378.268 404.769 378.124 404.729 377.999 404.694L371.47 425.987L346.71 419.517Z" fill="#FE5244"/>
<path fill-rule="evenodd" clip-rule="evenodd" d="M393.299 406.023C393.249 405.579 393.174 404.954 393.073 404.21C392.867 402.699 392.552 400.689 392.114 398.707C391.678 396.735 391.112 394.747 390.392 393.305C390.034 392.586 389.613 391.954 389.111 391.532C388.59 391.093 387.949 390.861 387.233 391.05L387.231 391.05L387.23 391.05C386.515 391.242 386.052 391.78 385.778 392.426C385.507 393.063 385.392 393.858 385.381 394.713C385.359 396.429 385.754 398.556 386.401 400.569C387.047 402.579 387.964 404.536 389.026 405.893C389.556 406.57 390.149 407.134 390.796 407.463C391.461 407.801 392.195 407.894 392.927 407.595C394.164 407.09 395.328 405.934 396.36 404.588C397.404 403.226 398.37 401.592 399.191 400.032C400.013 398.469 400.697 396.964 401.175 395.851C401.415 395.294 401.603 394.834 401.732 394.512C401.796 394.352 401.845 394.226 401.879 394.139C401.896 394.096 401.908 394.063 401.917 394.04L401.927 394.014L401.93 394.006L401.93 394.005C401.93 394.005 401.93 394.005 401.37 393.795C400.809 393.585 400.809 393.585 400.809 393.585L400.809 393.585L400.808 393.586L400.806 393.592L400.797 393.615C400.789 393.636 400.777 393.668 400.761 393.709C400.729 393.792 400.681 393.914 400.618 394.071C400.493 394.384 400.308 394.834 400.073 395.381C399.603 396.475 398.933 397.951 398.129 399.478C397.324 401.008 396.394 402.576 395.407 403.864C394.697 404.79 393.985 405.533 393.299 406.023ZM392.154 406.574C391.899 406.603 391.632 406.548 391.341 406.4C390.91 406.18 390.444 405.764 389.971 405.16C389.028 403.954 388.164 402.14 387.542 400.205C386.921 398.271 386.559 396.277 386.579 394.728C386.589 393.951 386.696 393.329 386.881 392.891C387.063 392.464 387.292 392.27 387.541 392.203C387.788 392.138 388.038 392.191 388.338 392.443C388.658 392.713 388.991 393.178 389.319 393.836C389.971 395.143 390.513 397.014 390.943 398.963C391.372 400.902 391.682 402.877 391.885 404.37C391.987 405.116 392.061 405.74 392.11 406.177C392.128 406.335 392.143 406.468 392.154 406.574Z" fill="#FE5244"/>
<path fill-rule="evenodd" clip-rule="evenodd" d="M433.149 415.844L398.339 437.486L386.786 435.635L374.662 442.851L349.98 442.47L349.998 441.277L374.339 441.652L386.546 434.387L398.086 436.236L432.515 414.832L433.149 415.844Z" fill="#FE5244"/>
<path fill-rule="evenodd" clip-rule="evenodd" d="M384.842 416.327L387.12 405.765L388.291 406.015L386.014 416.578L384.842 416.327Z" fill="#FE5244"/>
<path fill-rule="evenodd" clip-rule="evenodd" d="M389.797 417.521L392.074 406.958L393.246 407.208L390.968 417.771L389.797 417.521Z" fill="#FE5244"/>
<path fill-rule="evenodd" clip-rule="evenodd" d="M394.971 418.376L397.248 407.814L398.42 408.064L396.143 418.627L394.971 418.376Z" fill="#FE5244"/>
<path d="M269.426 222.704C269.426 222.704 284.068 229.507 284.068 254.452C284.068 278.561 228.174 426.2 228.174 426.2L210.974 440.721L193.515 421.684C202.045 413.608 177.554 267.6 269.426 222.704Z" fill="#E57281"/>
<path d="M267.868 469.007L224.399 469.047L216.328 462.005L204.762 461.945L203.923 469.067L186.883 469.087C177.614 440.362 193.595 421.664 193.595 421.664L210.935 440.681L228.254 426.179C228.254 426.179 243.277 443.724 257.46 452.119C271.683 460.533 267.868 469.007 267.868 469.007Z" fill="white"/>
<path fill-rule="evenodd" clip-rule="evenodd" d="M193.58 420.76L210.991 439.854L228.324 425.341L228.71 425.792L228.254 426.179C228.71 425.792 228.71 425.792 228.71 425.792L228.721 425.804L228.752 425.841C228.781 425.874 228.823 425.923 228.88 425.988C228.992 426.117 229.159 426.309 229.377 426.555C229.814 427.049 230.453 427.764 231.266 428.649C232.89 430.42 235.204 432.867 237.959 435.576C243.478 441.002 250.738 447.446 257.766 451.606C264.977 455.871 267.704 460.209 268.578 463.569C269.012 465.241 268.98 466.644 268.835 467.637C268.762 468.134 268.661 468.527 268.577 468.802C268.534 468.939 268.496 469.046 268.467 469.122C268.46 469.141 268.453 469.159 268.447 469.174C268.441 469.188 268.436 469.2 268.432 469.211C268.427 469.222 268.423 469.231 268.421 469.237L268.417 469.246L268.415 469.25C268.415 469.251 268.415 469.251 267.868 469.007L268.415 469.251L268.256 469.603L224.174 469.644L216.102 462.601L205.295 462.545L204.456 469.663L186.446 469.684L186.312 469.269C181.632 454.766 183.324 442.777 186.196 434.411C187.631 430.23 189.359 426.955 190.732 424.723C191.418 423.606 192.016 422.75 192.444 422.17C192.658 421.88 192.829 421.659 192.948 421.51C193.008 421.435 193.055 421.378 193.087 421.339C193.103 421.32 193.115 421.305 193.124 421.295L193.134 421.282L193.137 421.279L193.138 421.278C193.138 421.278 193.139 421.277 193.595 421.664L193.139 421.277L193.58 420.76ZM193.627 422.587C193.561 422.673 193.488 422.77 193.409 422.877C193 423.432 192.421 424.261 191.754 425.346C190.419 427.517 188.732 430.712 187.33 434.797C184.556 442.881 182.897 454.455 187.321 468.489L203.39 468.47L204.229 461.346L216.555 461.409L224.624 468.45L267.443 468.411C267.51 468.189 267.589 467.87 267.649 467.465C267.774 466.607 267.807 465.366 267.417 463.868C266.643 460.887 264.166 456.78 257.154 452.632C249.999 448.397 242.656 441.871 237.117 436.426C234.344 433.699 232.016 431.236 230.381 429.455C229.563 428.564 228.918 427.843 228.478 427.344C228.368 427.22 228.272 427.11 228.188 427.015L210.879 441.507L193.627 422.587Z" fill="#FE5244"/>
<path fill-rule="evenodd" clip-rule="evenodd" d="M248.27 420.055C249.16 419.934 250.018 420.153 250.761 420.796C251.5 421.434 251.839 422.23 251.837 423.104C251.835 423.949 251.515 424.825 251.031 425.679C250.064 427.385 248.326 429.201 246.486 430.844C244.635 432.495 242.636 434.01 241.103 435.11C240.395 435.618 239.785 436.039 239.332 436.345C239.531 436.364 239.772 436.373 240.061 436.368C240.78 436.357 241.688 436.265 242.725 436.111C244.797 435.802 247.325 435.255 249.785 434.658C252.242 434.062 254.617 433.421 256.38 432.928C257.26 432.682 257.987 432.473 258.494 432.326C258.747 432.252 258.945 432.194 259.08 432.154C259.147 432.134 259.199 432.119 259.233 432.108L259.285 432.093C259.285 432.093 259.285 432.093 259.458 432.664C259.63 433.236 259.63 433.236 259.63 433.236L259.576 433.252C259.557 433.258 259.532 433.265 259.502 433.274C259.478 433.281 259.451 433.289 259.421 433.298C259.285 433.338 259.085 433.397 258.83 433.471C258.32 433.619 257.589 433.83 256.704 434.077C254.933 434.572 252.543 435.218 250.068 435.818C247.596 436.417 245.027 436.975 242.902 437.291C241.841 437.449 240.875 437.549 240.079 437.562C239.32 437.573 238.598 437.51 238.114 437.246C237.455 436.885 237.333 436.103 237.356 435.447C237.381 434.736 237.584 433.859 237.9 432.913C238.537 431.01 239.685 428.682 241.065 426.543C242.44 424.411 244.08 422.412 245.722 421.209C246.543 420.607 247.407 420.174 248.27 420.055ZM238.557 435.427C239.009 435.122 239.649 434.682 240.402 434.142C241.917 433.055 243.879 431.568 245.686 429.955C247.504 428.332 249.121 426.622 249.987 425.092C250.42 424.328 250.637 423.659 250.638 423.101C250.64 422.573 250.451 422.108 249.976 421.697C249.505 421.29 248.997 421.161 248.433 421.238C247.844 421.319 247.168 421.631 246.433 422.17C244.961 423.248 243.415 425.108 242.073 427.188C240.736 429.261 239.637 431.499 239.037 433.29C238.747 434.156 238.586 434.886 238.557 435.427Z" fill="#FE5244"/>
<path fill-rule="evenodd" clip-rule="evenodd" d="M184.265 444.189L184.905 443.18L205.154 455.898H219.363L228.332 463.397H268.207V464.591H227.896L218.926 457.092H204.808L184.265 444.189Z" fill="#FE5244"/>
<path fill-rule="evenodd" clip-rule="evenodd" d="M226.273 439.483L233.944 431.845L234.791 432.689L227.12 440.327L226.273 439.483Z" fill="#FE5244"/>
<path fill-rule="evenodd" clip-rule="evenodd" d="M229.787 443.163L237.458 435.525L238.306 436.368L230.635 444.007L229.787 443.163Z" fill="#FE5244"/>
<path fill-rule="evenodd" clip-rule="evenodd" d="M233.664 446.665L241.335 439.026L242.182 439.87L234.511 447.509L233.664 446.665Z" fill="#FE5244"/>
<path d="M269.425 222.704C234.885 239.572 216.787 270.763 207.218 303.525H102.401C75.5726 303.525 55.5761 278.879 61.2295 252.761L68.9205 217.194H251.166C257.918 217.194 264.191 219.223 269.425 222.704Z" fill="#FE5244"/>
<path d="M191.595 256.798L229.331 256.719L223.738 265.849L191.595 256.798Z" fill="#E57281"/>
<path fill-rule="evenodd" clip-rule="evenodd" d="M108.676 216.609C109 216.677 109.208 216.993 109.14 217.315L107.682 224.278C107.682 224.278 107.682 224.277 107.682 224.278C104.243 240.716 116.825 256.142 133.684 256.142H229.004C239.061 242.273 252.185 230.361 269.36 221.969C269.657 221.824 270.016 221.946 270.162 222.242C270.308 222.538 270.185 222.895 269.888 223.041C252.806 231.387 239.775 243.254 229.798 257.087L229.619 257.336H133.684C116.063 257.336 102.915 241.213 106.508 224.034L107.967 217.072C108.034 216.749 108.352 216.542 108.676 216.609Z" fill="white"/>
<path fill-rule="evenodd" clip-rule="evenodd" d="M191.021 256.614C191.112 256.297 191.444 256.114 191.762 256.205L224.251 265.489L223.855 266.154C216.875 277.858 211.739 290.639 207.934 303.672C207.841 303.988 207.509 304.17 207.191 304.078C206.873 303.986 206.69 303.655 206.783 303.338C210.537 290.479 215.588 277.837 222.43 266.21L191.432 257.352C191.113 257.261 190.93 256.931 191.021 256.614Z" fill="white"/>
<path d="M44.4293 121.653L63.6267 196.646H27.8088C6.95327 196.646 -6.47096 174.586 3.19769 156.186L30.7054 103.81C38.4962 88.9907 53.8981 79.7011 70.6984 79.7011H77.1908C55.1367 79.6812 38.9757 100.369 44.4293 121.653Z" fill="#3FB1B5"/>
<path d="M265.49 102.198C276.776 102.198 286.165 100.706 288.443 98.6173L253.424 174.207C247.091 187.893 233.328 196.645 218.205 196.645C213.771 196.645 209.416 195.889 205.3 194.437C201.185 192.985 197.31 190.857 193.854 188.072L171.78 170.328C171.78 170.328 169.582 183.198 153.901 186.48V217.154H68.9008L44.4296 121.632C38.976 100.348 55.137 79.6403 77.1911 79.6403H136.701C141.955 79.6403 147.129 80.2967 152.123 81.5698C165.787 85.031 178.053 93.0277 186.722 104.485L215.808 142.917L241.937 97.4437C241.937 97.4835 241.917 97.5431 241.917 97.5829C241.937 100.229 252.505 102.198 265.49 102.198Z" fill="#3FB1B5"/>
<path fill-rule="evenodd" clip-rule="evenodd" d="M44.0854 121.073C44.4067 120.993 44.7317 121.189 44.8112 121.508L63.6091 197.098C63.6887 197.418 63.4927 197.742 63.1715 197.821C62.8502 197.9 62.5252 197.705 62.4457 197.385L43.6478 121.795C43.5682 121.475 43.7642 121.152 44.0854 121.073Z" fill="white"/>
<path fill-rule="evenodd" clip-rule="evenodd" d="M154.868 153.204C155.11 152.978 155.489 152.99 155.715 153.23L172.416 170.934C172.642 171.174 172.631 171.552 172.389 171.778C172.148 172.003 171.769 171.991 171.542 171.751L154.842 154.047C154.615 153.807 154.627 153.429 154.868 153.204Z" fill="white"/>
<path d="M288.963 97.5031L288.443 98.6171C286.166 100.726 276.777 102.198 265.49 102.198C252.506 102.198 241.938 100.228 241.938 97.6225C241.938 97.5827 241.938 97.523 241.958 97.4833C242.318 94.9371 252.746 92.749 265.51 92.749C278.255 92.749 288.603 94.9371 288.963 97.5031C288.963 97.4833 288.963 97.4833 288.963 97.5031Z" fill="#FE5244"/>
<path d="M299.429 59.3105C299.429 60.4444 299.149 61.5583 298.63 62.533C298.11 63.5077 297.351 64.3631 296.413 65.0195L295.953 65.3378L292.377 84.3347C291.798 87.4179 289.96 90.1431 287.303 91.834L282.409 94.9371L278.534 97.4037L276.736 101.68C273.4 102.019 269.584 102.218 265.509 102.218C261.394 102.218 257.518 102.019 254.142 101.661V72.2005C254.142 70.9275 254.422 69.6743 254.961 68.5205L261.474 54.5563C261.474 54.5563 268.585 56.3068 265.309 64.9997C262.333 72.8968 269.125 70.8678 272.94 69.4554C276.356 68.1824 291.279 60.6234 297.112 57.8584C298.19 57.3412 299.429 58.1369 299.429 59.3105Z" fill="#E57281"/>
<path fill-rule="evenodd" clip-rule="evenodd" d="M293.289 76.625C293.56 76.6755 293.738 76.9353 293.688 77.2052C293.083 80.4241 291.164 83.2477 288.392 85.0122L279.621 90.5823C279.389 90.73 279.08 90.662 278.932 90.4304C278.784 90.1988 278.852 89.8914 279.084 89.7437L287.854 84.1742C290.395 82.557 292.152 79.97 292.706 77.0223C292.757 76.7524 293.017 76.5745 293.289 76.625Z" fill="#9A3B82"/>
<path fill-rule="evenodd" clip-rule="evenodd" d="M294.727 68.5688C294.998 68.6193 295.176 68.8791 295.126 69.1491C294.521 72.3679 292.602 75.1915 289.83 76.956L281.06 82.5261C280.827 82.6737 280.518 82.6058 280.37 82.3742C280.222 82.1426 280.29 81.8352 280.523 81.6875L289.292 76.118C289.292 76.1179 289.292 76.1178 289.292 76.1178C289.292 76.1178 289.292 76.1178 289.292 76.1178C291.833 74.5006 293.59 71.9137 294.144 68.9661C294.195 68.6962 294.455 68.5183 294.727 68.5688Z" fill="#9A3B82"/>
<path fill-rule="evenodd" clip-rule="evenodd" d="M295.735 65.2899C295.883 65.5218 295.814 65.8291 295.581 65.9763L281.477 74.888C281.244 75.0351 280.936 74.9664 280.788 74.7345C280.64 74.5026 280.709 74.1953 280.942 74.0482L295.046 65.1365C295.279 64.9893 295.587 65.058 295.735 65.2899Z" fill="#9A3B82"/>
<path d="M283.169 94.4398L282.39 94.9371L278.514 97.4037L276.717 101.68C273.38 102.019 269.565 102.218 265.49 102.218C261.375 102.218 257.499 102.019 254.123 101.661V93.3855C257.499 92.9877 261.375 92.7689 265.49 92.7689C272.541 92.749 278.854 93.4054 283.169 94.4398Z" fill="#9A3B82"/>
<path d="M150.266 81.1126C147.37 84.9915 136.582 94.1219 100.265 94.1219C53.54 94.1219 83.4449 79.7202 83.4449 79.7202L103.262 46.7591L124.517 59.7486V70.1919C124.517 75.4633 128.812 79.7202 134.085 79.7202H135.464C140.418 79.7003 145.532 79.9191 150.266 81.1126Z" fill="#E57281"/>
<path d="M124.498 59.7284V62.3939L83.4258 79.6999L103.243 46.7389L124.498 59.7284Z" fill="#9A3B82"/>
<path d="M125.614 61.0212H130.129C134.284 61.0212 137.66 57.6595 137.66 53.5219V28.4779H110.711V46.1818C110.711 54.3773 117.384 61.0212 125.614 61.0212Z" fill="#E57281"/>
<path fill-rule="evenodd" clip-rule="evenodd" d="M133.457 49.8305L133.456 49.8302L133.456 49.8295L133.456 49.8287C133.455 49.8285 133.455 49.8286 133.456 49.8289C133.456 49.8289 133.456 49.8289 133.456 49.8289M133.456 49.8289C133.456 49.829 133.456 49.8291 133.456 49.8293C133.457 49.8305 133.458 49.8336 133.461 49.8382C133.467 49.8476 133.478 49.8636 133.493 49.8853C133.522 49.9287 133.57 49.9946 133.637 50.0756C133.771 50.2378 133.979 50.4586 134.27 50.6804C134.847 51.1205 135.756 51.5724 137.08 51.5724C137.356 51.5724 137.58 51.7951 137.58 52.0697C137.58 52.3444 137.356 52.567 137.08 52.567C135.507 52.567 134.389 52.0243 133.662 51.4698C133.301 51.1943 133.039 50.9178 132.865 50.707C132.778 50.6015 132.713 50.512 132.668 50.4466C132.646 50.4139 132.628 50.3872 132.616 50.3674C132.609 50.3575 132.604 50.3494 132.601 50.3431L132.596 50.3351L132.594 50.3322L132.593 50.331L132.593 50.3305C132.593 50.3302 132.593 50.33 133.025 50.0805" fill="#73325A"/>
<path d="M134.462 44.0534C134.992 44.0534 135.421 43.2252 135.421 42.2035C135.421 41.1818 134.992 40.3535 134.462 40.3535C133.933 40.3535 133.503 41.1818 133.503 42.2035C133.503 43.2252 133.933 44.0534 134.462 44.0534Z" fill="#73325A"/>
<path d="M115.847 31.0842C115.847 31.0842 138.08 44.4516 145.312 32.8148C151.664 22.6102 123.518 17.3587 113.689 17.3189C103.002 17.2791 88.8383 21.9935 89.078 37.6486C89.2778 50.5386 89.8171 69.3962 82.1462 66.114C54.8582 54.4573 30.6068 66.6312 30.5269 89.8253C30.447 113.019 57.4752 115.188 58.1544 109.2C58.8536 103.233 41.3741 104.605 43.7313 120.101C46.0686 135.597 56.4963 154.972 80.3083 154.972C109.075 154.992 127.393 117.276 109.594 113.437C95.9499 110.493 123.498 136.711 131.668 109.459C140.458 80.118 108.695 70.5102 107.916 52.7864C107.137 35.0626 115.847 31.0842 115.847 31.0842Z" fill="#FFCF2D"/>
<path fill-rule="evenodd" clip-rule="evenodd" d="M97.0142 21.1806C101.968 17.9807 108.287 16.8011 113.691 16.8212C118.659 16.8413 128.208 18.1729 135.733 20.7851C139.486 22.088 142.807 23.7328 144.79 25.7455C145.787 26.7582 146.471 27.8899 146.673 29.1414C146.877 30.4009 146.582 31.7186 145.737 33.0761C143.832 36.1407 140.935 37.5494 137.719 37.9468C134.521 38.342 130.988 37.7425 127.727 36.7901C124.459 35.8359 121.427 34.516 119.214 33.4372C118.107 32.8974 117.203 32.4167 116.574 32.0706C116.26 31.8974 116.015 31.7579 115.848 31.6612C115.843 31.6588 115.839 31.6564 115.835 31.654C115.804 31.6719 115.77 31.6919 115.734 31.7142C115.515 31.8467 115.196 32.0586 114.813 32.3685C114.046 32.988 113.018 34.0006 112.009 35.5581C109.993 38.6682 108.029 43.9882 108.415 52.7642C108.603 57.0447 110.662 60.8691 113.589 64.6906C115.051 66.5996 116.719 68.4948 118.464 70.4385C118.761 70.7694 119.06 71.1018 119.36 71.4357C120.822 73.0595 122.319 74.7224 123.764 76.4473C127.249 80.6078 130.466 85.1704 132.249 90.562C134.036 95.9654 134.372 102.171 132.147 109.6C130.076 116.507 126.743 120.129 123.041 121.624C121.085 122.414 119.059 122.595 117.115 122.379C117.198 126.425 115.644 131.242 112.842 135.906C106.829 145.917 94.9148 155.479 80.3081 155.469C68.2476 155.468 59.5528 150.555 53.5888 143.672C47.6369 136.803 44.4164 127.99 43.2375 120.174C42.6652 116.411 43.2304 113.421 44.4518 111.138C44.2586 111.067 44.0653 110.994 43.8722 110.918C36.8857 108.164 29.9867 101.661 30.0275 89.8232C30.0682 78.0319 36.2645 69.0175 45.9193 64.451C55.5588 59.8918 68.5964 59.7843 82.3431 65.6566L82.3434 65.6567C83.2226 66.0329 83.9273 66.0692 84.5039 65.8874C85.0845 65.7044 85.6093 65.2769 86.0801 64.5844C87.0356 63.179 87.6706 60.827 88.0688 57.8792C88.8145 52.3587 88.6972 45.0491 88.5973 38.823C88.591 38.4294 88.5847 38.0401 88.5788 37.6557C88.4561 29.6472 92.0317 24.3987 97.0142 21.1806ZM45.41 111.465C44.2522 113.548 43.6677 116.361 44.2252 120.026L44.2253 120.027C45.3836 127.707 48.5456 136.329 54.345 143.022C60.1321 149.7 68.5571 154.474 80.3084 154.474H80.3088C94.4682 154.484 106.097 145.198 111.985 135.396C114.771 130.757 116.237 126.058 116.111 122.232C114.751 121.984 113.445 121.554 112.246 121.017C110.653 120.303 109.234 119.393 108.107 118.45C106.987 117.514 106.127 116.519 105.689 115.623C105.47 115.176 105.338 114.716 105.366 114.28C105.395 113.822 105.602 113.417 106 113.134C106.377 112.865 106.885 112.735 107.482 112.709C108.085 112.683 108.822 112.761 109.7 112.951C112.02 113.451 113.786 114.513 115.013 116.01C116.21 117.471 116.867 119.312 117.058 121.371C118.915 121.601 120.833 121.442 122.666 120.702C126 119.356 129.175 116.036 131.189 109.316C133.359 102.075 133.021 96.0771 131.3 90.8731C129.575 85.6573 126.451 81.2088 122.997 77.0843C121.564 75.3742 120.081 73.7269 118.62 72.1032C118.318 71.7684 118.018 71.4345 117.719 71.1013C115.974 69.1567 114.283 67.2364 112.795 65.2938C109.822 61.4121 107.618 57.3891 107.417 52.8077C107.024 43.86 109.025 38.3289 111.17 35.0188C112.24 33.3663 113.341 32.2765 114.183 31.5962C114.604 31.2562 114.96 31.0188 115.214 30.8645C115.342 30.7874 115.444 30.7311 115.516 30.6931C115.552 30.6741 115.58 30.6597 115.601 30.6496C115.611 30.6445 115.62 30.6405 115.626 30.6376L115.634 30.6339L115.638 30.6322C115.638 30.632 115.638 30.6318 115.847 31.0838L115.638 30.6318L115.879 30.5221L116.105 30.6581L116.098 30.6691C116.105 30.6581 116.105 30.658 116.105 30.6581L116.105 30.6584L116.108 30.66L116.119 30.6666C116.129 30.6726 116.145 30.6818 116.165 30.6939C116.206 30.7181 116.268 30.7541 116.349 30.8009C116.511 30.8944 116.75 31.0306 117.058 31.2003C117.674 31.5397 118.563 32.0125 119.653 32.544C121.836 33.608 124.813 34.9027 128.008 35.8357C131.209 36.7706 134.591 37.331 137.596 36.9597C140.582 36.5907 143.176 35.3065 144.887 32.5527L144.888 32.5524C145.631 31.3588 145.846 30.2803 145.687 29.2993C145.527 28.3102 144.978 27.3571 144.077 26.4419C142.261 24.5986 139.122 23.0147 135.404 21.7242C127.987 19.1496 118.548 17.8355 113.687 17.8158M116.037 121.205C115.831 119.408 115.237 117.857 114.239 116.639C113.173 115.338 111.617 114.382 109.488 113.923C108.661 113.744 108.014 113.682 107.525 113.703C107.031 113.725 106.74 113.829 106.58 113.943C106.441 114.042 106.374 114.166 106.363 114.343C106.35 114.543 106.41 114.826 106.587 115.188C106.94 115.91 107.686 116.799 108.749 117.689C109.806 118.573 111.147 119.433 112.656 120.11C113.72 120.587 114.86 120.969 116.037 121.205ZM45.41 111.465C48.3735 112.407 51.275 112.698 53.5923 112.455C54.9487 112.312 56.1357 111.983 57.0213 111.467C57.9095 110.949 58.542 110.211 58.6506 109.256C58.7528 108.382 58.5205 107.617 58.028 107.008C57.5433 106.407 56.8317 105.987 56.0134 105.732C54.3815 105.223 52.2183 105.338 50.1412 106.137C48.2092 106.881 46.3197 108.227 44.9708 110.267C44.7273 110.18 44.4836 110.089 44.2398 109.993C37.5624 107.361 30.9872 101.182 31.0264 89.8266C31.0656 78.4238 37.035 69.7542 46.3479 65.3494C55.676 60.9374 68.408 60.7862 81.9491 66.5705C82.9877 67.0149 83.9441 67.1072 84.8055 66.8356C85.6629 66.5653 86.3529 65.9573 86.9072 65.142C88.0018 63.532 88.6578 60.9793 89.0587 58.0117C89.8149 52.4135 89.6962 45.0332 89.5964 38.8313C89.5899 38.4291 89.5835 38.0319 89.5775 37.6406C89.4604 29.9941 92.8467 25.0578 97.5577 22.015C102.297 18.9539 108.404 17.7962 113.687 17.8158M45.9559 110.593C47.1665 108.867 48.8125 107.715 50.5011 107.065C52.4119 106.33 54.3401 106.253 55.7152 106.681C56.4006 106.894 56.9213 107.224 57.2496 107.631C57.5698 108.027 57.7307 108.525 57.6584 109.142L57.6582 109.144C57.5967 109.686 57.2361 110.189 56.5168 110.608C55.7946 111.029 54.7593 111.332 53.4874 111.465C51.3829 111.687 48.7151 111.437 45.9559 110.593Z" fill="white"/>
<path fill-rule="evenodd" clip-rule="evenodd" d="M130.19 42.3236H114.289V41.1301H130.19V42.3236Z" fill="#3FB1B5"/>
<path fill-rule="evenodd" clip-rule="evenodd" d="M135.085 37.1515C133.053 37.1515 131.169 39.32 131.169 42.3234C131.169 45.3269 133.053 47.4953 135.085 47.4953C137.117 47.4953 139 45.3269 139 42.3234C139 39.32 137.117 37.1515 135.085 37.1515ZM129.971 42.3234C129.971 38.9549 132.13 35.958 135.085 35.958C138.04 35.958 140.199 38.9549 140.199 42.3234C140.199 45.6919 138.04 48.6889 135.085 48.6889C132.13 48.6889 129.971 45.6919 129.971 42.3234Z" fill="#3FB1B5"/>
<path fill-rule="evenodd" clip-rule="evenodd" d="M110.433 13.9172C108.229 13.9172 106.458 15.6972 106.458 17.8757V34.6247H105.259V17.8757C105.259 15.0414 107.563 12.7236 110.433 12.7236H115.427C118.273 12.7236 120.601 15.0181 120.601 17.8757H119.402C119.402 15.6807 117.615 13.9172 115.427 13.9172H110.433Z" fill="#66B0F0"/>
<path d="M110.673 53.065H101.064C98.6073 53.065 96.6096 51.0758 96.6096 48.629V39.061C96.6096 36.6143 98.6073 34.6251 101.064 34.6251H110.673C113.13 34.6251 115.128 36.6143 115.128 39.061V48.629C115.108 51.0758 113.13 53.065 110.673 53.065Z" fill="white"/>
<path fill-rule="evenodd" clip-rule="evenodd" d="M101.064 35.2214C98.9381 35.2214 97.2087 36.9434 97.2087 39.0605V48.6286C97.2087 50.7457 98.9381 52.4677 101.064 52.4677H110.673C112.794 52.4677 114.51 50.7503 114.528 48.626V39.0605C114.528 36.9434 112.799 35.2214 110.673 35.2214H101.064ZM96.0101 39.0605C96.0101 36.2842 98.2761 34.0278 101.064 34.0278H110.673C113.461 34.0278 115.727 36.2842 115.727 39.0605V48.631L115.727 48.6334C115.704 51.4015 113.465 53.6612 110.673 53.6612H101.064C98.2761 53.6612 96.0101 51.4049 96.0101 48.6286V39.0605Z" fill="#66B0F0"/>
<path d="M108.176 49.902H103.481C101.464 49.902 99.8057 48.2709 99.8057 46.2419V41.5672C99.8057 39.5581 101.444 37.9071 103.481 37.9071H108.176C110.193 37.9071 111.852 39.5382 111.852 41.5672V46.2419C111.852 48.2709 110.213 49.902 108.176 49.902Z" fill="white"/>
<path fill-rule="evenodd" clip-rule="evenodd" d="M103.482 38.5043C101.777 38.5043 100.406 39.886 100.406 41.5676V46.2422C100.406 47.9395 101.793 49.3056 103.482 49.3056H108.176C109.883 49.3056 111.253 47.9416 111.253 46.2422V41.5676C111.253 39.8703 109.865 38.5043 108.176 38.5043H103.482ZM99.2069 41.5676C99.2069 39.2311 101.111 37.3107 103.482 37.3107H108.176C110.523 37.3107 112.451 39.2069 112.451 41.5676V46.2422C112.451 48.6008 110.545 50.4991 108.176 50.4991H103.482C101.135 50.4991 99.2069 48.6029 99.2069 46.2422V41.5676Z" fill="#66B0F0"/>
<path fill-rule="evenodd" clip-rule="evenodd" d="M101.204 49.0861L109.554 38.0262L110.512 38.7434L102.162 49.8033L101.204 49.0861Z" fill="#66B0F0"/>
<path fill-rule="evenodd" clip-rule="evenodd" d="M99.5675 47.1946L106.799 37.6465L107.756 38.3651L100.524 47.9132L99.5675 47.1946Z" fill="#66B0F0"/>
<path fill-rule="evenodd" clip-rule="evenodd" d="M103.94 49.542L111.172 39.9938L112.129 40.7125L104.897 50.2607L103.94 49.542Z" fill="#66B0F0"/>
<path fill-rule="evenodd" clip-rule="evenodd" d="M106.839 49.5428L111.374 43.5553L112.331 44.2739L107.796 50.2614L106.839 49.5428Z" fill="#66B0F0"/>
<path fill-rule="evenodd" clip-rule="evenodd" d="M99.3476 43.5941L103.862 37.6465L104.818 38.3661L100.304 44.3138L99.3476 43.5941Z" fill="#66B0F0"/>
<path fill-rule="evenodd" clip-rule="evenodd" d="M98.1473 325.803V314.843H99.3459V325.803C99.3459 331.424 94.7626 335.988 89.1179 335.988H64.4269V334.794H89.1179C94.1006 334.794 98.1473 330.765 98.1473 325.803Z" fill="#66B0F0"/>
<path fill-rule="evenodd" clip-rule="evenodd" d="M107.358 415.516V314.962H108.556V415.516H107.358Z" fill="#66B0F0"/>
<path fill-rule="evenodd" clip-rule="evenodd" d="M102.903 416.113C81.2202 416.113 63.8486 430.395 63.8486 447.761H62.65C62.65 429.521 80.7966 414.919 102.903 414.919H112.851C134.957 414.919 153.104 429.521 153.104 447.761H151.905C151.905 430.395 134.533 416.113 112.851 416.113H102.903Z" fill="#66B0F0"/>
<path d="M204.022 316.494H58.9925C51.721 316.494 45.8479 310.625 45.8479 303.405H207.458L204.022 316.494Z" fill="#FFCF2D"/>
<path d="M62.3705 469.085C68.284 469.085 73.0779 464.311 73.0779 458.423C73.0779 452.534 68.284 447.761 62.3705 447.761C56.4569 447.761 51.6631 452.534 51.6631 458.423C51.6631 464.311 56.4569 469.085 62.3705 469.085Z" fill="#FFCF2D"/>
<path d="M56.9155 338.116H78.4102C80.1682 338.116 81.5865 336.704 81.5865 334.953V334.715C81.5865 332.964 80.1682 331.552 78.4102 331.552H56.9155C55.1576 331.552 53.7393 332.964 53.7393 334.715V334.953C53.7393 336.704 55.1576 338.116 56.9155 338.116Z" fill="#FFCF2D"/>
<path fill-rule="evenodd" clip-rule="evenodd" d="M12.0439 211.286C9.38821 203.856 14.9106 196.047 22.8365 196.047H98.4876C105.853 196.047 112.411 200.662 114.893 207.563L114.893 207.563L149.599 304.399H45.4271L12.0439 211.286ZM13.1729 210.885C10.7951 204.232 15.7403 197.241 22.8365 197.241H98.4876C105.345 197.241 111.453 201.538 113.765 207.965L147.898 303.206H46.2719L13.1731 210.886C13.1731 210.886 13.173 210.885 13.1729 210.885Z" fill="#FFCF2D"/>
<path fill-rule="evenodd" clip-rule="evenodd" d="M15.2459 199.608H91.8359C98.9616 199.608 105.3 204.064 107.702 210.745L107.702 210.746L141.249 304.399H50.944V303.206H139.549L106.574 211.148C104.341 204.939 98.454 200.802 91.8359 200.802H15.2459V199.608Z" fill="#FFCF2D"/>
<path d="M152.324 469.085C158.238 469.085 163.032 464.311 163.032 458.423C163.032 452.534 158.238 447.761 152.324 447.761C146.41 447.761 141.617 452.534 141.617 458.423C141.617 464.311 146.41 469.085 152.324 469.085Z" fill="#FFCF2D"/>
</svg>
