<svg width="435" height="458" viewBox="0 0 435 458" fill="none" xmlns="http://www.w3.org/2000/svg">
<path d="M378.457 392.178C377.917 392.019 377.618 391.94 377.618 391.94L371.085 413.244L346.494 406.819C346.294 406.64 346.194 406.54 346.194 406.54C346.194 406.54 246.611 328.822 241.378 291.525C236.164 254.227 277.875 218.839 277.875 218.839C277.875 218.839 366.83 386.27 377.837 391.741C378.057 391.86 378.277 391.999 378.457 392.178Z" fill="#E57281"/>
<path d="M298.931 258.007C295.814 274.617 284.867 308.254 273.541 340.797C256.76 322.795 243.216 304.634 241.378 291.505C238.062 267.873 253.624 244.978 265.45 231.411C269.785 227.95 274.459 224.767 279.513 221.923C282.61 227.711 289.781 241.119 298.931 258.007Z" fill="#9A3B82"/>
<path d="M434.351 406.52L397.774 429.894L387.166 428.302L377.398 434.469L380.554 440.914L364.473 451.198C343.158 431.883 346.174 406.759 346.174 406.759L371.065 413.264L377.597 391.96C377.597 391.96 399.951 398.464 416.452 397.907C432.993 397.35 434.351 406.52 434.351 406.52Z" fill="white"/>
<path fill-rule="evenodd" clip-rule="evenodd" d="M377.197 391.222L377.765 391.387L377.597 391.96C377.765 391.387 377.765 391.387 377.765 391.387L377.781 391.392L377.828 391.405C377.87 391.418 377.933 391.436 378.016 391.459C378.183 391.506 378.429 391.575 378.749 391.663C379.39 391.839 380.324 392.09 381.497 392.39C383.843 392.989 387.143 393.782 390.957 394.558C398.595 396.112 408.253 397.588 416.431 397.312C424.816 397.029 429.46 399.212 432.011 401.568C433.281 402.741 434.012 403.938 434.426 404.851C434.633 405.308 434.761 405.693 434.838 405.969C434.876 406.107 434.902 406.218 434.918 406.297C434.926 406.336 434.932 406.368 434.936 406.391C434.938 406.403 434.94 406.412 434.941 406.419L434.943 406.428L434.943 406.432L434.943 406.433C434.943 406.434 434.944 406.434 434.351 406.521L434.944 406.434L435 406.815L397.907 430.518L387.298 428.926L378.171 434.688L381.326 441.13L364.41 451.948L364.069 451.64C353.3 441.881 348.675 430.65 346.745 421.864C345.78 417.471 345.488 413.687 345.437 410.998C345.411 409.654 345.446 408.582 345.488 407.844C345.509 407.475 345.531 407.189 345.549 406.994C345.557 406.896 345.565 406.822 345.57 406.77C345.573 406.745 345.575 406.725 345.577 406.712L345.578 406.696L345.579 406.691L345.579 406.69C345.579 406.689 345.579 406.689 346.174 406.76L345.579 406.689L345.661 406.009L370.66 412.542L377.197 391.222ZM346.71 407.517C346.701 407.634 346.693 407.765 346.685 407.911C346.645 408.622 346.61 409.664 346.635 410.976C346.685 413.601 346.971 417.306 347.916 421.609C349.786 430.12 354.234 440.965 364.538 450.448L379.782 440.699L376.624 434.251L387.034 427.68L397.64 429.271L433.671 406.247C433.607 406.025 433.502 405.714 433.334 405.343C432.976 404.554 432.334 403.493 431.196 402.443C428.933 400.354 424.627 398.23 416.472 398.504C408.15 398.785 398.381 397.287 390.717 395.728C386.88 394.947 383.56 394.149 381.199 393.546C380.018 393.244 379.077 392.992 378.431 392.814C378.268 392.769 378.124 392.729 377.999 392.694L371.47 413.987L346.71 407.517Z" fill="#FE5244"/>
<path fill-rule="evenodd" clip-rule="evenodd" d="M393.299 394.023C393.249 393.579 393.174 392.954 393.073 392.21C392.867 390.699 392.552 388.689 392.114 386.707C391.678 384.735 391.112 382.747 390.392 381.305C390.034 380.586 389.613 379.954 389.111 379.532C388.59 379.093 387.949 378.861 387.233 379.05L387.231 379.05L387.23 379.05C386.515 379.242 386.052 379.78 385.778 380.426C385.507 381.063 385.392 381.858 385.381 382.713C385.359 384.429 385.754 386.556 386.401 388.569C387.047 390.579 387.964 392.536 389.026 393.893C389.556 394.57 390.149 395.134 390.796 395.463C391.461 395.801 392.195 395.894 392.927 395.595C394.164 395.09 395.328 393.934 396.36 392.588C397.404 391.226 398.37 389.592 399.191 388.032C400.013 386.469 400.697 384.964 401.175 383.851C401.415 383.294 401.603 382.834 401.732 382.512C401.796 382.352 401.845 382.226 401.879 382.139C401.896 382.096 401.908 382.063 401.917 382.04L401.927 382.014L401.93 382.006L401.93 382.005C401.93 382.005 401.93 382.005 401.37 381.795C400.809 381.585 400.809 381.585 400.809 381.585L400.809 381.585L400.808 381.586L400.806 381.592L400.797 381.615C400.789 381.636 400.777 381.668 400.761 381.709C400.729 381.792 400.681 381.914 400.618 382.071C400.493 382.384 400.308 382.834 400.073 383.381C399.603 384.475 398.933 385.951 398.129 387.478C397.324 389.008 396.394 390.576 395.407 391.864C394.697 392.79 393.985 393.533 393.299 394.023ZM392.154 394.574C391.899 394.603 391.632 394.548 391.341 394.4C390.91 394.18 390.444 393.764 389.971 393.16C389.028 391.954 388.164 390.14 387.542 388.205C386.921 386.271 386.559 384.277 386.579 382.728C386.589 381.951 386.696 381.329 386.881 380.891C387.063 380.464 387.292 380.27 387.541 380.203C387.788 380.138 388.038 380.191 388.338 380.443C388.658 380.713 388.991 381.178 389.319 381.836C389.971 383.143 390.513 385.014 390.943 386.963C391.372 388.902 391.682 390.877 391.885 392.37C391.987 393.116 392.061 393.74 392.11 394.177C392.128 394.335 392.143 394.468 392.154 394.574Z" fill="#FE5244"/>
<path fill-rule="evenodd" clip-rule="evenodd" d="M433.149 403.844L398.339 425.486L386.786 423.635L374.662 430.851L349.98 430.47L349.998 429.277L374.339 429.652L386.546 422.387L398.086 424.236L432.515 402.832L433.149 403.844Z" fill="#FE5244"/>
<path fill-rule="evenodd" clip-rule="evenodd" d="M384.842 404.327L387.12 393.765L388.291 394.015L386.014 404.578L384.842 404.327Z" fill="#FE5244"/>
<path fill-rule="evenodd" clip-rule="evenodd" d="M389.797 405.521L392.074 394.958L393.246 395.208L390.968 405.771L389.797 405.521Z" fill="#FE5244"/>
<path fill-rule="evenodd" clip-rule="evenodd" d="M394.971 406.376L397.248 395.814L398.42 396.064L396.143 406.627L394.971 406.376Z" fill="#FE5244"/>
<path d="M269.426 210.704C269.426 210.704 284.068 217.507 284.068 242.452C284.068 266.561 228.174 414.2 228.174 414.2L210.974 428.721L193.515 409.684C202.045 401.608 177.554 255.6 269.426 210.704Z" fill="#E57281"/>
<path d="M267.868 457.007L224.399 457.047L216.328 450.005L204.762 449.945L203.923 457.067L186.883 457.087C177.614 428.362 193.595 409.664 193.595 409.664L210.935 428.681L228.254 414.179C228.254 414.179 243.277 431.724 257.46 440.119C271.683 448.533 267.868 457.007 267.868 457.007Z" fill="white"/>
<path fill-rule="evenodd" clip-rule="evenodd" d="M193.58 408.76L210.991 427.854L228.324 413.341L228.71 413.792L228.254 414.179C228.71 413.792 228.71 413.792 228.71 413.792L228.721 413.804L228.752 413.841C228.781 413.874 228.823 413.923 228.88 413.988C228.992 414.117 229.159 414.309 229.377 414.555C229.814 415.049 230.453 415.764 231.266 416.649C232.89 418.42 235.204 420.867 237.959 423.576C243.478 429.002 250.738 435.446 257.766 439.606C264.977 443.871 267.704 448.209 268.578 451.569C269.012 453.241 268.98 454.644 268.835 455.637C268.762 456.134 268.661 456.527 268.577 456.802C268.534 456.939 268.496 457.046 268.467 457.122C268.46 457.141 268.453 457.159 268.447 457.174C268.441 457.188 268.436 457.2 268.432 457.211C268.427 457.222 268.423 457.231 268.421 457.237L268.417 457.246L268.415 457.25C268.415 457.251 268.415 457.251 267.868 457.007L268.415 457.251L268.256 457.603L224.174 457.644L216.102 450.601L205.295 450.545L204.456 457.663L186.446 457.684L186.312 457.269C181.632 442.766 183.324 430.777 186.196 422.411C187.631 418.23 189.359 414.955 190.732 412.723C191.418 411.606 192.016 410.75 192.444 410.17C192.658 409.88 192.829 409.659 192.948 409.51C193.008 409.435 193.055 409.378 193.087 409.339C193.103 409.32 193.115 409.305 193.124 409.295L193.134 409.282L193.137 409.279L193.138 409.278C193.138 409.278 193.139 409.277 193.595 409.664L193.139 409.277L193.58 408.76ZM193.627 410.587C193.561 410.673 193.488 410.77 193.409 410.877C193 411.432 192.421 412.261 191.754 413.346C190.419 415.517 188.732 418.712 187.33 422.797C184.556 430.881 182.897 442.455 187.321 456.489L203.39 456.47L204.229 449.346L216.555 449.409L224.624 456.45L267.443 456.411C267.51 456.189 267.589 455.87 267.649 455.465C267.774 454.607 267.807 453.366 267.417 451.868C266.643 448.887 264.166 444.78 257.154 440.632C249.999 436.397 242.656 429.871 237.117 424.426C234.344 421.699 232.016 419.236 230.381 417.455C229.563 416.564 228.918 415.843 228.478 415.344C228.368 415.22 228.272 415.11 228.188 415.015L210.879 429.507L193.627 410.587Z" fill="#FE5244"/>
<path fill-rule="evenodd" clip-rule="evenodd" d="M248.27 408.055C249.16 407.934 250.018 408.153 250.761 408.796C251.5 409.434 251.839 410.23 251.837 411.104C251.835 411.949 251.515 412.825 251.031 413.679C250.064 415.385 248.326 417.201 246.486 418.844C244.635 420.495 242.636 422.01 241.103 423.11C240.395 423.618 239.785 424.039 239.332 424.345C239.531 424.364 239.772 424.373 240.061 424.368C240.78 424.357 241.688 424.265 242.725 424.111C244.797 423.802 247.325 423.255 249.785 422.658C252.242 422.062 254.617 421.421 256.38 420.928C257.26 420.682 257.987 420.473 258.494 420.326C258.747 420.252 258.945 420.194 259.08 420.154C259.147 420.134 259.199 420.119 259.233 420.108L259.285 420.093C259.285 420.093 259.285 420.093 259.458 420.664C259.63 421.236 259.63 421.236 259.63 421.236L259.576 421.252C259.557 421.258 259.532 421.265 259.502 421.274C259.478 421.281 259.451 421.289 259.421 421.298C259.285 421.338 259.085 421.397 258.83 421.471C258.32 421.619 257.589 421.83 256.704 422.077C254.933 422.572 252.543 423.218 250.068 423.818C247.596 424.417 245.027 424.975 242.902 425.291C241.841 425.449 240.875 425.549 240.079 425.562C239.32 425.573 238.598 425.51 238.114 425.246C237.455 424.885 237.333 424.103 237.356 423.447C237.381 422.736 237.584 421.859 237.9 420.913C238.537 419.01 239.685 416.682 241.065 414.543C242.44 412.411 244.08 410.412 245.722 409.209C246.543 408.607 247.407 408.174 248.27 408.055ZM238.557 423.427C239.009 423.122 239.649 422.682 240.402 422.142C241.917 421.055 243.879 419.568 245.686 417.955C247.504 416.332 249.121 414.622 249.987 413.092C250.42 412.328 250.637 411.659 250.638 411.101C250.64 410.573 250.451 410.108 249.976 409.697C249.505 409.29 248.997 409.161 248.433 409.238C247.844 409.319 247.168 409.631 246.433 410.17C244.961 411.248 243.415 413.108 242.073 415.188C240.736 417.261 239.637 419.499 239.037 421.29C238.747 422.156 238.586 422.886 238.557 423.427Z" fill="#FE5244"/>
<path fill-rule="evenodd" clip-rule="evenodd" d="M184.265 432.189L184.905 431.18L205.154 443.898H219.363L228.332 451.397H268.207V452.591H227.896L218.926 445.092H204.808L184.265 432.189Z" fill="#FE5244"/>
<path fill-rule="evenodd" clip-rule="evenodd" d="M226.273 427.483L233.944 419.845L234.791 420.689L227.12 428.327L226.273 427.483Z" fill="#FE5244"/>
<path fill-rule="evenodd" clip-rule="evenodd" d="M229.787 431.163L237.458 423.525L238.306 424.368L230.635 432.007L229.787 431.163Z" fill="#FE5244"/>
<path fill-rule="evenodd" clip-rule="evenodd" d="M233.664 434.665L241.335 427.026L242.182 427.87L234.511 435.509L233.664 434.665Z" fill="#FE5244"/>
<path d="M269.425 210.704C234.885 227.572 216.787 258.763 207.218 291.525H102.401C75.5726 291.525 55.5761 266.879 61.2295 240.761L68.9205 205.194H251.166C257.918 205.194 264.191 207.223 269.425 210.704Z" fill="#FE5244"/>
<path d="M191.595 244.798L229.331 244.719L223.738 253.849L191.595 244.798Z" fill="#E57281"/>
<path fill-rule="evenodd" clip-rule="evenodd" d="M108.676 204.609C109 204.677 109.208 204.993 109.14 205.315L107.682 212.278C107.682 212.278 107.682 212.277 107.682 212.278C104.243 228.716 116.825 244.142 133.684 244.142H229.004C239.061 230.273 252.185 218.361 269.36 209.969C269.657 209.824 270.016 209.946 270.162 210.242C270.308 210.538 270.185 210.895 269.888 211.041C252.806 219.387 239.775 231.254 229.798 245.087L229.619 245.336H133.684C116.063 245.336 102.915 229.213 106.508 212.034L107.967 205.072C108.034 204.749 108.352 204.542 108.676 204.609Z" fill="white"/>
<path fill-rule="evenodd" clip-rule="evenodd" d="M191.021 244.614C191.112 244.297 191.444 244.114 191.762 244.205L224.251 253.489L223.855 254.154C216.875 265.858 211.739 278.639 207.934 291.672C207.841 291.988 207.509 292.17 207.191 292.078C206.873 291.986 206.69 291.655 206.783 291.338C210.537 278.479 215.588 265.837 222.43 254.21L191.432 245.352C191.113 245.261 190.93 244.931 191.021 244.614Z" fill="white"/>
<path d="M44.4293 109.653L63.6267 184.646H27.8088C6.95327 184.646 -6.47096 162.586 3.19769 144.186L30.7054 91.8103C38.4962 76.9907 53.8981 67.7011 70.6984 67.7011H77.1908C55.1367 67.6812 38.9757 88.3689 44.4293 109.653Z" fill="#3FB1B5"/>
<path d="M265.49 90.1979C276.776 90.1979 286.165 88.706 288.443 86.6173L253.424 162.207C247.091 175.893 233.328 184.645 218.205 184.645C213.771 184.645 209.416 183.889 205.3 182.437C201.185 180.985 197.31 178.857 193.854 176.072L171.78 158.328C171.78 158.328 169.582 171.198 153.901 174.48V205.154H68.9008L44.4296 109.632C38.976 88.3479 55.137 67.6403 77.1911 67.6403H136.701C141.955 67.6403 147.129 68.2967 152.123 69.5698C165.787 73.031 178.053 81.0277 186.722 92.4855L215.808 130.917L241.937 85.4437C241.937 85.4835 241.917 85.5431 241.917 85.5829C241.937 88.2285 252.505 90.1979 265.49 90.1979Z" fill="#3FB1B5"/>
<path fill-rule="evenodd" clip-rule="evenodd" d="M44.0854 109.073C44.4067 108.993 44.7317 109.189 44.8112 109.508L63.6091 185.098C63.6887 185.418 63.4927 185.742 63.1715 185.821C62.8502 185.9 62.5252 185.705 62.4457 185.385L43.6478 109.795C43.5682 109.475 43.7642 109.152 44.0854 109.073Z" fill="white"/>
<path fill-rule="evenodd" clip-rule="evenodd" d="M154.868 141.204C155.11 140.978 155.489 140.99 155.715 141.23L172.416 158.934C172.642 159.174 172.631 159.552 172.389 159.778C172.148 160.003 171.769 159.991 171.542 159.751L154.842 142.047C154.615 141.807 154.627 141.429 154.868 141.204Z" fill="white"/>
<path d="M288.963 85.5031L288.443 86.6171C286.166 88.7257 276.777 90.1977 265.49 90.1977C252.506 90.1977 241.938 88.2284 241.938 85.6225C241.938 85.5827 241.938 85.523 241.958 85.4833C242.318 82.9371 252.746 80.749 265.51 80.749C278.255 80.749 288.603 82.9371 288.963 85.5031C288.963 85.4833 288.963 85.4833 288.963 85.5031Z" fill="#FE5244"/>
<path d="M299.429 47.3105C299.429 48.4444 299.149 49.5583 298.63 50.533C298.11 51.5077 297.351 52.3631 296.413 53.0195L295.953 53.3378L292.377 72.3347C291.798 75.4179 289.96 78.1431 287.303 79.834L282.409 82.9371L278.534 85.4037L276.736 89.6805C273.4 90.0187 269.584 90.2176 265.509 90.2176C261.394 90.2176 257.518 90.0187 254.142 89.6606V60.2005C254.142 58.9275 254.422 57.6743 254.961 56.5205L261.474 42.5563C261.474 42.5563 268.585 44.3068 265.309 52.9997C262.333 60.8968 269.125 58.8678 272.94 57.4554C276.356 56.1824 291.279 48.6234 297.112 45.8584C298.19 45.3412 299.429 46.1369 299.429 47.3105Z" fill="#E57281"/>
<path fill-rule="evenodd" clip-rule="evenodd" d="M293.289 64.625C293.56 64.6755 293.738 64.9353 293.688 65.2052C293.083 68.4241 291.164 71.2477 288.392 73.0122L279.621 78.5823C279.389 78.73 279.08 78.662 278.932 78.4304C278.784 78.1988 278.852 77.8914 279.084 77.7437L287.854 72.1742C290.395 70.557 292.152 67.97 292.706 65.0223C292.757 64.7524 293.017 64.5745 293.289 64.625Z" fill="#9A3B82"/>
<path fill-rule="evenodd" clip-rule="evenodd" d="M294.727 56.5688C294.998 56.6193 295.176 56.8791 295.126 57.1491C294.521 60.3679 292.602 63.1915 289.83 64.956L281.06 70.5261C280.827 70.6737 280.518 70.6058 280.37 70.3742C280.222 70.1426 280.29 69.8352 280.523 69.6875L289.292 64.118C289.292 64.1179 289.292 64.1178 289.292 64.1178C289.292 64.1178 289.292 64.1178 289.292 64.1178C291.833 62.5006 293.59 59.9137 294.144 56.9661C294.195 56.6962 294.455 56.5183 294.727 56.5688Z" fill="#9A3B82"/>
<path fill-rule="evenodd" clip-rule="evenodd" d="M295.735 53.2899C295.883 53.5218 295.814 53.8291 295.581 53.9763L281.477 62.888C281.244 63.0351 280.936 62.9664 280.788 62.7345C280.64 62.5026 280.709 62.1953 280.942 62.0482L295.046 53.1365C295.279 52.9893 295.587 53.058 295.735 53.2899Z" fill="#9A3B82"/>
<path d="M283.169 82.4398L282.39 82.9371L278.514 85.4037L276.717 89.6805C273.38 90.0186 269.565 90.2176 265.49 90.2176C261.375 90.2176 257.499 90.0187 254.123 89.6606V81.3855C257.499 80.9877 261.375 80.7689 265.49 80.7689C272.541 80.749 278.854 81.4054 283.169 82.4398Z" fill="#9A3B82"/>
<path d="M150.266 69.1126C147.37 72.9915 136.582 82.1219 100.265 82.1219C53.54 82.1219 83.4449 67.7202 83.4449 67.7202L103.262 34.7591L124.517 47.7486V58.1919C124.517 63.4633 128.812 67.7202 134.085 67.7202H135.464C140.418 67.7003 145.532 67.9191 150.266 69.1126Z" fill="#E57281"/>
<path d="M124.498 47.7284V50.3939L83.4258 67.6999L103.243 34.7389L124.498 47.7284Z" fill="#9A3B82"/>
<path d="M125.614 49.0212H130.129C134.284 49.0212 137.66 45.6595 137.66 41.5219V16.4779H110.711V34.1818C110.711 42.3773 117.384 49.0212 125.614 49.0212Z" fill="#E57281"/>
<path fill-rule="evenodd" clip-rule="evenodd" d="M133.457 37.8305L133.456 37.8302L133.456 37.8295L133.456 37.8287C133.455 37.8285 133.455 37.8286 133.456 37.8289C133.456 37.8289 133.456 37.8289 133.456 37.8289M133.456 37.8289C133.456 37.829 133.456 37.8291 133.456 37.8293C133.457 37.8305 133.458 37.8336 133.461 37.8382C133.467 37.8476 133.478 37.8636 133.493 37.8853C133.522 37.9287 133.57 37.9946 133.637 38.0756C133.771 38.2378 133.979 38.4586 134.27 38.6804C134.847 39.1205 135.756 39.5724 137.08 39.5724C137.356 39.5724 137.58 39.7951 137.58 40.0697C137.58 40.3444 137.356 40.567 137.08 40.567C135.507 40.567 134.389 40.0243 133.662 39.4698C133.301 39.1943 133.039 38.9178 132.865 38.707C132.778 38.6015 132.713 38.512 132.668 38.4466C132.646 38.4139 132.628 38.3872 132.616 38.3674C132.609 38.3575 132.604 38.3494 132.601 38.3431L132.596 38.3351L132.594 38.3322L132.593 38.331L132.593 38.3305C132.593 38.3302 132.593 38.33 133.025 38.0805" fill="#73325A"/>
<path d="M134.462 32.0534C134.992 32.0534 135.421 31.2252 135.421 30.2035C135.421 29.1818 134.992 28.3535 134.462 28.3535C133.933 28.3535 133.503 29.1818 133.503 30.2035C133.503 31.2252 133.933 32.0534 134.462 32.0534Z" fill="#73325A"/>
<path d="M115.847 19.0842C115.847 19.0842 138.08 32.4516 145.312 20.8148C151.664 10.6102 123.518 5.3587 113.689 5.31891C103.002 5.27913 88.8383 9.99354 89.078 25.6486C89.2778 38.5386 89.8171 57.3962 82.1462 54.114C54.8582 42.4573 30.6068 54.6312 30.5269 77.8253C30.447 101.019 57.4752 103.188 58.1544 97.2001C58.8536 91.2325 41.3741 92.6051 43.7313 108.101C46.0686 123.597 56.4963 142.972 80.3083 142.972C109.075 142.992 127.393 105.276 109.594 101.437C95.9499 98.4931 123.498 124.711 131.668 97.4587C140.458 68.118 108.695 58.5102 107.916 40.7864C107.137 23.0626 115.847 19.0842 115.847 19.0842Z" fill="#FFCF2D"/>
<path fill-rule="evenodd" clip-rule="evenodd" d="M97.0142 9.18055C101.968 5.98067 108.287 4.80109 113.691 4.82121C118.659 4.84131 128.208 6.17285 135.733 8.78505C139.486 10.088 142.807 11.7328 144.79 13.7455C145.787 14.7582 146.471 15.8899 146.673 17.1414C146.877 18.4009 146.582 19.7186 145.737 21.0761C143.832 24.1407 140.935 25.5494 137.719 25.9468C134.521 26.342 130.988 25.7425 127.727 24.7901C124.459 23.8359 121.427 22.516 119.214 21.4372C118.107 20.8974 117.203 20.4167 116.574 20.0706C116.26 19.8974 116.015 19.7579 115.848 19.6612C115.843 19.6588 115.839 19.6564 115.835 19.654C115.804 19.6719 115.77 19.6919 115.734 19.7142C115.515 19.8467 115.196 20.0586 114.813 20.3685C114.046 20.988 113.018 22.0006 112.009 23.5581C109.993 26.6682 108.029 31.9882 108.415 40.7642C108.603 45.0447 110.662 48.8691 113.589 52.6906C115.051 54.5996 116.719 56.4948 118.464 58.4385C118.761 58.7694 119.06 59.1018 119.36 59.4357C120.822 61.0595 122.319 62.7224 123.764 64.4473C127.249 68.6078 130.466 73.1704 132.249 78.562C134.036 83.9654 134.372 90.1712 132.147 97.6005C130.076 104.507 126.743 108.129 123.041 109.624C121.085 110.414 119.059 110.595 117.115 110.379C117.198 114.425 115.644 119.242 112.842 123.906C106.829 133.917 94.9148 143.479 80.3081 143.469C68.2476 143.468 59.5528 138.555 53.5888 131.672C47.6369 124.803 44.4164 115.99 43.2375 108.174C42.6652 104.411 43.2304 101.421 44.4518 99.1377C44.2586 99.0672 44.0653 98.9939 43.8722 98.9178C36.8857 96.164 29.9867 89.6614 30.0275 77.8232C30.0682 66.0319 36.2645 57.0175 45.9193 52.451C55.5588 47.8918 68.5964 47.7843 82.3431 53.6566L82.3434 53.6567C83.2226 54.0329 83.9273 54.0692 84.5039 53.8874C85.0845 53.7044 85.6093 53.2769 86.0801 52.5844C87.0356 51.179 87.6706 48.827 88.0688 45.8792C88.8145 40.3587 88.6972 33.0491 88.5973 26.823C88.591 26.4294 88.5847 26.0401 88.5788 25.6557C88.4561 17.6472 92.0317 12.3987 97.0142 9.18055ZM45.41 99.4646C44.2522 101.548 43.6677 104.361 44.2252 108.026L44.2253 108.027C45.3836 115.707 48.5456 124.329 54.345 131.022C60.1321 137.7 68.5571 142.474 80.3084 142.474H80.3088C94.4682 142.484 106.097 133.198 111.985 123.396C114.771 118.757 116.237 114.058 116.111 110.232C114.751 109.984 113.445 109.554 112.246 109.017C110.653 108.303 109.234 107.393 108.107 106.45C106.987 105.514 106.127 104.519 105.689 103.623C105.47 103.176 105.338 102.716 105.366 102.28C105.395 101.822 105.602 101.417 106 101.134C106.377 100.865 106.885 100.735 107.482 100.709C108.085 100.683 108.822 100.761 109.7 100.951C112.02 101.451 113.786 102.513 115.013 104.01C116.21 105.471 116.867 107.312 117.058 109.371C118.915 109.601 120.833 109.442 122.666 108.702C126 107.356 129.175 104.036 131.189 97.3161C133.359 90.075 133.021 84.0771 131.3 78.8731C129.575 73.6573 126.451 69.2088 122.997 65.0843C121.564 63.3742 120.081 61.7269 118.62 60.1032C118.318 59.7684 118.018 59.4345 117.719 59.1013C115.974 57.1567 114.283 55.2364 112.795 53.2938C109.822 49.4121 107.618 45.3891 107.417 40.8077C107.024 31.86 109.025 26.3289 111.17 23.0188C112.24 21.3663 113.341 20.2765 114.183 19.5962C114.604 19.2562 114.96 19.0188 115.214 18.8645C115.342 18.7874 115.444 18.7311 115.516 18.6931C115.552 18.6741 115.58 18.6597 115.601 18.6496C115.611 18.6445 115.62 18.6405 115.626 18.6376L115.634 18.6339L115.638 18.6322C115.638 18.632 115.638 18.6318 115.847 19.0838L115.638 18.6318L115.879 18.5221L116.105 18.6581L116.098 18.6691C116.105 18.6581 116.105 18.658 116.105 18.6581L116.105 18.6584L116.108 18.66L116.119 18.6666C116.129 18.6726 116.145 18.6818 116.165 18.6939C116.206 18.7181 116.268 18.7541 116.349 18.8009C116.511 18.8944 116.75 19.0306 117.058 19.2003C117.674 19.5397 118.563 20.0125 119.653 20.544C121.836 21.608 124.813 22.9027 128.008 23.8357C131.209 24.7706 134.591 25.331 137.596 24.9597C140.582 24.5907 143.176 23.3065 144.887 20.5527L144.888 20.5524C145.631 19.3588 145.846 18.2803 145.687 17.2993C145.527 16.3102 144.978 15.3571 144.077 14.4419C142.261 12.5986 139.122 11.0147 135.404 9.72422C127.987 7.1496 118.548 5.8355 113.687 5.8158M116.037 109.205C115.831 107.408 115.237 105.857 114.239 104.639C113.173 103.338 111.617 102.382 109.488 101.923C108.661 101.744 108.014 101.682 107.525 101.703C107.031 101.725 106.74 101.829 106.58 101.943C106.441 102.042 106.374 102.166 106.363 102.343C106.35 102.543 106.41 102.826 106.587 103.188C106.94 103.91 107.686 104.799 108.749 105.689C109.806 106.573 111.147 107.433 112.656 108.11C113.72 108.587 114.86 108.969 116.037 109.205ZM45.41 99.4646C48.3735 100.407 51.275 100.698 53.5923 100.455C54.9487 100.312 56.1357 99.9828 57.0213 99.4668C57.9095 98.9492 58.542 98.2109 58.6506 97.2564C58.7528 96.3823 58.5205 95.6175 58.028 95.0076C57.5433 94.4074 56.8317 93.9865 56.0134 93.7317C54.3815 93.2233 52.2183 93.3384 50.1412 94.1374C48.2092 94.8807 46.3197 96.2274 44.9708 98.267C44.7273 98.1804 44.4836 98.0891 44.2398 97.993C37.5624 95.361 30.9872 89.1825 31.0264 77.8266C31.0656 66.4238 37.035 57.7542 46.3479 53.3494C55.676 48.9374 68.408 48.7862 81.9491 54.5705C82.9877 55.0149 83.9441 55.1072 84.8055 54.8356C85.6629 54.5653 86.3529 53.9573 86.9072 53.142C88.0018 51.532 88.6578 48.9793 89.0587 46.0117C89.8149 40.4135 89.6962 33.0332 89.5964 26.8313C89.5899 26.4291 89.5835 26.0319 89.5775 25.6406C89.4604 17.9941 92.8467 13.0578 97.5577 10.015C102.297 6.95389 108.404 5.79616 113.687 5.8158M45.9559 98.5926C47.1665 96.8674 48.8125 95.7149 50.5011 95.0652C52.4119 94.3301 54.3401 94.2525 55.7152 94.6809C56.4006 94.8944 56.9213 95.2243 57.2496 95.6308C57.5698 96.0273 57.7307 96.5247 57.6584 97.1421L57.6582 97.1439C57.5967 97.6859 57.2361 98.1893 56.5168 98.6084C55.7946 99.0292 54.7593 99.3318 53.4874 99.4655C51.3829 99.6867 48.7151 99.4367 45.9559 98.5926Z" fill="white"/>
<path fill-rule="evenodd" clip-rule="evenodd" d="M130.19 30.3236H114.289V29.1301H130.19V30.3236Z" fill="#3FB1B5"/>
<path fill-rule="evenodd" clip-rule="evenodd" d="M135.085 25.1515C133.053 25.1515 131.169 27.32 131.169 30.3234C131.169 33.3269 133.053 35.4953 135.085 35.4953C137.117 35.4953 139 33.3269 139 30.3234C139 27.32 137.117 25.1515 135.085 25.1515ZM129.971 30.3234C129.971 26.9549 132.13 23.958 135.085 23.958C138.04 23.958 140.199 26.9549 140.199 30.3234C140.199 33.6919 138.04 36.6889 135.085 36.6889C132.13 36.6889 129.971 33.6919 129.971 30.3234Z" fill="#3FB1B5"/>
<path fill-rule="evenodd" clip-rule="evenodd" d="M110.433 1.91715C108.229 1.91715 106.458 3.69716 106.458 5.87567V22.6247H105.259V5.87567C105.259 3.04139 107.563 0.723633 110.433 0.723633H115.427C118.273 0.723633 120.601 3.01811 120.601 5.87567H119.402C119.402 3.68066 117.615 1.91715 115.427 1.91715H110.433Z" fill="#66B0F0"/>
<path d="M110.673 41.065H101.064C98.6073 41.065 96.6096 39.0758 96.6096 36.629V27.061C96.6096 24.6143 98.6073 22.6251 101.064 22.6251H110.673C113.13 22.6251 115.128 24.6143 115.128 27.061V36.629C115.108 39.0758 113.13 41.065 110.673 41.065Z" fill="white"/>
<path fill-rule="evenodd" clip-rule="evenodd" d="M101.064 23.2214C98.9381 23.2214 97.2087 24.9434 97.2087 27.0605V36.6286C97.2087 38.7457 98.9381 40.4677 101.064 40.4677H110.673C112.794 40.4677 114.51 38.7503 114.528 36.626V27.0605C114.528 24.9434 112.799 23.2214 110.673 23.2214H101.064ZM96.0101 27.0605C96.0101 24.2842 98.2761 22.0278 101.064 22.0278H110.673C113.461 22.0278 115.727 24.2842 115.727 27.0605V36.631L115.727 36.6334C115.704 39.4015 113.465 41.6612 110.673 41.6612H101.064C98.2761 41.6612 96.0101 39.4049 96.0101 36.6286V27.0605Z" fill="#66B0F0"/>
<path d="M108.176 37.902H103.481C101.464 37.902 99.8057 36.2709 99.8057 34.2419V29.5672C99.8057 27.5581 101.444 25.9071 103.481 25.9071H108.176C110.193 25.9071 111.852 27.5382 111.852 29.5672V34.2419C111.852 36.2709 110.213 37.902 108.176 37.902Z" fill="white"/>
<path fill-rule="evenodd" clip-rule="evenodd" d="M103.482 26.5043C101.777 26.5043 100.406 27.886 100.406 29.5676V34.2422C100.406 35.9395 101.793 37.3056 103.482 37.3056H108.176C109.883 37.3056 111.253 35.9416 111.253 34.2422V29.5676C111.253 27.8703 109.865 26.5043 108.176 26.5043H103.482ZM99.2069 29.5676C99.2069 27.2311 101.111 25.3107 103.482 25.3107H108.176C110.523 25.3107 112.451 27.2069 112.451 29.5676V34.2422C112.451 36.6008 110.545 38.4991 108.176 38.4991H103.482C101.135 38.4991 99.2069 36.6029 99.2069 34.2422V29.5676Z" fill="#66B0F0"/>
<path fill-rule="evenodd" clip-rule="evenodd" d="M101.204 37.0861L109.554 26.0262L110.512 26.7434L102.162 37.8033L101.204 37.0861Z" fill="#66B0F0"/>
<path fill-rule="evenodd" clip-rule="evenodd" d="M99.5675 35.1946L106.799 25.6465L107.756 26.3651L100.524 35.9132L99.5675 35.1946Z" fill="#66B0F0"/>
<path fill-rule="evenodd" clip-rule="evenodd" d="M103.94 37.542L111.172 27.9938L112.129 28.7125L104.897 38.2607L103.94 37.542Z" fill="#66B0F0"/>
<path fill-rule="evenodd" clip-rule="evenodd" d="M106.839 37.5428L111.374 31.5553L112.331 32.2739L107.796 38.2614L106.839 37.5428Z" fill="#66B0F0"/>
<path fill-rule="evenodd" clip-rule="evenodd" d="M99.3476 31.5941L103.862 25.6465L104.818 26.3661L100.304 32.3138L99.3476 31.5941Z" fill="#66B0F0"/>
</svg>
